<?xml version="1.0" encoding="UTF-8"?>
<svg width="14px" height="15px" viewBox="0 0 14 15" version="1.1" xmlns="http://www.w3.org/2000/svg" xmlns:xlink="http://www.w3.org/1999/xlink">
    <!-- Generator: sketchtool 49.3 (51167) - http://www.bohemiancoding.com/sketch -->
    <title>C5B7B387-25B0-4A79-B778-826CF78ECA4A</title>
    <desc>Created with sketchtool.</desc>
    <defs></defs>
    <g id="Designs" stroke="none" stroke-width="1" fill="none" fill-rule="evenodd">
        <g id="Component---header-test" transform="translate(-1151.000000, -2223.000000)" fill="#000000">
            <path d="M1153,2235.78125 L1159,2235.78125 L1159,2229.78125 L1153,2229.78125 L1153,2235.78125 Z M1153,2237.78125 L1151,2237.78125 L1151,2227.78125 L1153,2227.78125 L1159,2227.78125 L1161,2227.78125 L1161,2237.78125 L1159,2237.78125 L1153,2237.78125 Z M1163,2223.78125 L1165,2223.78125 L1165,2233.78125 L1164,2233.78125 L1162,2233.78125 L1162,2231.78125 L1163,2231.78125 L1163,2230.84325 L1163,2225.78125 L1157.917,2225.78125 L1157,2225.78125 L1157,2226.78125 L1155,2226.78125 L1155,2223.78125 L1157,2223.78125 L1163,2223.78125 Z" id="Combined-Shape"></path>
        </g>
    </g>
</svg>