<?xml version="1.0" encoding="UTF-8"?>
<svg width="15px" height="17px" viewBox="0 0 15 17" version="1.1" xmlns="http://www.w3.org/2000/svg" xmlns:xlink="http://www.w3.org/1999/xlink">
    <!-- Generator: sketchtool 49.3 (51167) - http://www.bohemiancoding.com/sketch -->
    <title>095399FD-D2A1-4FB4-BFE2-B5D41865218F</title>
    <desc>Created with sketchtool.</desc>
    <defs></defs>
    <g id="Designs" stroke="none" stroke-width="1" fill="none" fill-rule="evenodd">
        <g id="Component---header-test" transform="translate(-1148.000000, -2294.000000)" fill="#9700FD">
            <path d="M1158.193,2296.31513 L1153.762,2296.31513 L1153.762,2295.87012 L1153.79,2295.73212 L1153.923,2295.57013 L1154.105,2295.51413 L1157.838,2295.51413 L1157.975,2295.54212 L1158.137,2295.67612 L1158.193,2295.85712 L1158.193,2296.31513 Z M1162.063,2296.31513 C1162.579,2296.31513 1163,2296.73612 1163,2297.25112 C1163,2297.76712 1162.579,2298.18813 1162.063,2298.18813 L1149.892,2298.18813 C1149.377,2298.18813 1148.956,2297.76712 1148.956,2297.25112 C1148.956,2296.73612 1149.377,2296.31513 1149.892,2296.31513 L1152.576,2296.31513 L1152.576,2295.85712 C1152.576,2295.54212 1152.673,2295.24613 1152.838,2295.00212 C1153.003,2294.75913 1153.235,2294.56612 1153.51,2294.44913 C1153.693,2294.37113 1153.895,2294.32812 1154.105,2294.32812 L1157.85,2294.32812 L1157.851,2294.32812 C1158.166,2294.32812 1158.463,2294.42513 1158.706,2294.59013 C1158.948,2294.75513 1159.142,2294.98713 1159.258,2295.26213 L1159.259,2295.26213 C1159.337,2295.44513 1159.38,2295.64813 1159.38,2295.85712 L1159.38,2296.31513 L1162.063,2296.31513 Z M1150.7148,2309.05553 L1149.8918,2299.10653 L1162.0628,2299.10653 L1161.2408,2309.05553 C1161.1758,2309.82553 1160.4948,2310.45253 1159.7228,2310.45352 L1152.2328,2310.45352 C1151.4598,2310.45253 1150.7798,2309.82553 1150.7148,2309.05553 Z M1157.9318,2308.13452 C1157.9318,2308.35352 1158.1028,2308.53753 1158.3258,2308.55153 L1158.3498,2308.55153 C1158.5698,2308.55153 1158.7548,2308.37953 1158.7668,2308.15653 L1159.2038,2300.76852 L1159.2048,2300.74453 C1159.2048,2300.52453 1159.0328,2300.34053 1158.8098,2300.32652 L1158.7858,2300.32652 C1158.5668,2300.32652 1158.3818,2300.49852 1158.3688,2300.72053 L1157.9328,2308.10253 L1157.9318,2308.10953 L1157.9318,2308.13452 Z M1155.5588,2300.74453 L1155.5588,2308.13353 C1155.5598,2308.36353 1155.7468,2308.55153 1155.9778,2308.55153 C1156.2078,2308.55153 1156.3958,2308.36353 1156.3958,2308.13353 L1156.3958,2300.74453 C1156.3958,2300.51453 1156.2078,2300.32652 1155.9778,2300.32652 C1155.7468,2300.32652 1155.5598,2300.51453 1155.5588,2300.74453 Z M1154.0228,2308.11652 L1153.5868,2300.72053 C1153.5738,2300.49852 1153.3888,2300.32652 1153.1688,2300.32652 L1153.1448,2300.32652 C1152.9228,2300.34053 1152.7508,2300.52453 1152.7508,2300.74453 L1152.7508,2300.76852 L1153.1878,2308.15653 C1153.2008,2308.37953 1153.3858,2308.55153 1153.6058,2308.55153 L1153.6298,2308.55153 C1153.8518,2308.53753 1154.0238,2308.35352 1154.0238,2308.13452 L1154.0228,2308.11652 Z" id="Mask-Copy-4"></path>
        </g>
    </g>
</svg>